<?xml version="1.0" encoding="utf-8"?>
<!-- Generator: Adobe Illustrator 19.0.0, SVG Export Plug-In . SVG Version: 6.00 Build 0)  -->
<svg version="1.1" id="Layer_1" xmlns="http://www.w3.org/2000/svg" xmlns:xlink="http://www.w3.org/1999/xlink" x="0px" y="0px"
	 viewBox="824.9 -215 1034.8 919" style="enable-background:new 824.9 -215 1034.8 919;" xml:space="preserve">
<style type="text/css">
	.st0{fill:#FFB7D5;}
	.st1{fill:#CA7358;}
	.st2{fill:none;stroke:#FFB7D5;stroke-width:4;stroke-linecap:round;stroke-linejoin:round;}
	.st3{fill:#F5EBDD;}
	.st4{fill:#30242A;}
	.st5{fill:#FFBE21;}
	.st6{fill:#A15842;}
	.st7{fill:none;stroke:#A15842;stroke-width:4;stroke-linecap:round;stroke-miterlimit:10;}
	.st8{fill:none;stroke:#30242A;stroke-width:4;stroke-linecap:round;stroke-linejoin:round;}
	.st9{fill:none;stroke:#A15842;stroke-width:4;stroke-miterlimit:10;}
	.st10{fill:#4856DF;}
	.st11{fill:#3EC1F3;}
	.st12{fill:#4756DF;}
	.st13{clip-path:url(#SVGID_2_);}
	.st14{fill:none;}
	.st15{fill:none;stroke:#30242A;stroke-width:8;stroke-linecap:round;stroke-linejoin:round;}
	.st16{fill:none;stroke:#000000;stroke-width:4;stroke-linecap:round;stroke-miterlimit:10;}
	.st17{fill:#F4E6D8;}
	.st18{fill:none;stroke:#F5EBDD;stroke-width:4;stroke-linecap:round;stroke-linejoin:round;}
	.st19{fill:none;stroke:#30242A;stroke-width:4;stroke-linecap:round;stroke-miterlimit:10;}
</style>
<title>wfh_8</title>
<g id="Layer_6">
	<path class="st0" d="M1385-186.1h11.5c90.7,0,164.3,73.6,164.3,164.3v313.5l0,0h-340.2l0,0V-21.8
		C1220.6-112.5,1294.2-186.1,1385-186.1C1385-186.1,1385-186.1,1385-186.1z"/>
	<path class="st1" d="M1452.5,103v193.6h-150.9V103H1452.5 M1456.5,99h-158.9v201.6h158.9V99z"/>
	<rect x="1297.5" y="99" class="st1" width="158.9" height="41.7"/>
	<path class="st1" d="M1296.7-1.7v299.2h-90.8V-1.7H1296.7 M1300.7-5.7h-98.8v307.2h98.8V-5.7z"/>
	<path class="st1" d="M1577.2-62.2v358.8h-119.9V-62.2H1577.2 M1581.2-66.2h-127.9v366.8h127.9V-66.2z"/>
	<path class="st1" d="M1505.3-17.3h1.1c9,0,16.4,7.3,16.4,16.4l0,0V36l0,0h-33.9l0,0V-0.9C1488.9-10,1496.3-17.3,1505.3-17.3
		C1505.3-17.3,1505.3-17.3,1505.3-17.3z"/>
	<line class="st2" x1="1485.1" y1="11.8" x2="1526.7" y2="11.8"/>
	<path class="st3" d="M1505.3,78.3h1.1c9,0,16.4,7.3,16.4,16.4l0,0v36.9l0,0h-33.9l0,0V94.7C1488.9,85.7,1496.3,78.3,1505.3,78.3
		C1505.3,78.3,1505.3,78.3,1505.3,78.3z"/>
	<line class="st2" x1="1485.1" y1="107.4" x2="1526.7" y2="107.4"/>
	<path class="st3" d="M1505.3,173.9h1.1c9,0,16.4,7.3,16.4,16.4l0,0v36.9l0,0h-33.9l0,0v-36.9
		C1488.9,181.3,1496.3,173.9,1505.3,173.9L1505.3,173.9L1505.3,173.9z"/>
	<line class="st2" x1="1485.1" y1="203" x2="1526.7" y2="203"/>
	<path class="st4" d="M1505.3,269.6h1.1c9,0,16.4,7.3,16.4,16.4l0,0v33.9l0,0h-33.9l0,0v-33.9
		C1488.9,276.9,1496.3,269.6,1505.3,269.6C1505.3,269.6,1505.3,269.6,1505.3,269.6z"/>
	<rect x="1453.3" y="-66.2" class="st1" width="127.9" height="16"/>
	<rect x="1201.8" y="-13.4" class="st1" width="98.8" height="16"/>
	<rect x="1326.1" y="178.5" class="st3" width="33.9" height="43.6"/>
	<line class="st2" x1="1322.2" y1="197.8" x2="1363.9" y2="197.8"/>
	<line class="st2" x1="1343.1" y1="224" x2="1343.1" y2="197.8"/>
	<rect x="1326.1" y="257.2" class="st1" width="33.9" height="43.6"/>
	<line class="st2" x1="1322.2" y1="276.6" x2="1363.9" y2="276.6"/>
	<line class="st2" x1="1343.1" y1="302.8" x2="1343.1" y2="276.6"/>
	<rect x="1390.1" y="178.5" class="st4" width="33.9" height="43.6"/>
	<line class="st2" x1="1386.2" y1="197.8" x2="1427.9" y2="197.8"/>
	<line class="st2" x1="1407.1" y1="224" x2="1407.1" y2="197.8"/>
	<rect x="1390.1" y="257.2" class="st3" width="33.9" height="43.6"/>
	<line class="st2" x1="1386.2" y1="276.6" x2="1427.9" y2="276.6"/>
	<line class="st2" x1="1407.1" y1="302.8" x2="1407.1" y2="276.6"/>
	<circle class="st3" cx="1320.1" cy="-92.9" r="25.2"/>
	<rect x="1177" y="291.8" class="st3" width="427.4" height="29.1"/>
	<path class="st3" d="M1397.5-215H1384c-106.3,0-192.4,86.1-192.4,192.4v343.5h398.3V-22.6C1589.9-128.9,1503.7-215,1397.5-215z
		 M1376.2,291.8h-155.5V49.6h155.5V291.8z M1376.2,20.5h-155.5v-42.1c0-87.3,68.3-159.4,155.5-164.1V20.5z M1560.8,291.8h-155.5
		V49.6h155.5V291.8z M1560.8,20.5h-155.5v-206.2c87.2,4.7,155.5,76.7,155.5,164.1V20.5z"/>
	<circle class="st0" cx="863.6" cy="665" r="38.8"/>
	<path class="st5" d="M1728.1,349c0,1.1-0.2,2.1-0.6,3.1c-3,6.8-15.8,7.8-28.6,2.2c-10.7-4.7-17.9-12.5-18.2-18.9l0,0v85.3h47.5
		L1728.1,349L1728.1,349z"/>
	<path class="st6" d="M1709.8,329.7c-12.8-5.6-25.6-4.6-28.6,2.2c-0.5,1.1-0.7,2.3-0.6,3.6c0.3,6.4,7.6,14.2,18.2,18.9
		c12.8,5.6,25.6,4.6,28.6-2.2c0.4-1,0.6-2,0.6-3.1C1728.1,342.5,1720.7,334.4,1709.8,329.7z"/>
	<path class="st5" d="M1764.5,377.1c-0.3,6.4-7.6,14.2-18.2,18.9c-12.8,5.6-25.6,4.6-28.6-2.3c-0.4-1-0.6-2-0.6-3.1l0,0v30h47.5
		L1764.5,377.1L1764.5,377.1z"/>
	<path class="st6" d="M1763.8,373.6c-3-6.8-15.8-7.8-28.6-2.2c-10.9,4.8-18.3,12.9-18.3,19.4c0,1.1,0.2,2.1,0.6,3.1
		c3,6.8,15.8,7.8,28.6,2.3c10.7-4.7,17.9-12.5,18.2-18.9C1764.5,375.9,1764.3,374.7,1763.8,373.6z"/>
	<line class="st7" x1="1718.4" y1="420.7" x2="1718.4" y2="391.7"/>
	<line class="st8" x1="1704.3" y1="323.3" x2="1704.3" y2="339.8"/>
	<line class="st8" x1="1740.7" y1="365" x2="1740.7" y2="382.5"/>
	<path class="st4" d="M1501,704L1501,704c-4.2,0-7.7-3.4-7.7-7.7c0-0.8,0.1-1.6,0.4-2.4l24-73.1c1-3.1,4-5.3,7.3-5.3h16.8
		c4.2,0,7.7,3.4,7.7,7.7c0,1.3-0.3,2.6-1,3.7l-40.9,73.1C1506.3,702.5,1503.8,704,1501,704z"/>
	<path class="st4" d="M1822.5,704L1822.5,704c4.2,0,7.7-3.4,7.7-7.7c0-0.8-0.1-1.6-0.4-2.4l-24-73.1c-1-3.1-4-5.3-7.3-5.3h-16.8
		c-4.2,0-7.7,3.4-7.7,7.7c0,1.3,0.3,2.6,1,3.7l40.9,73.1C1817.2,702.5,1819.8,704,1822.5,704z"/>
	<rect x="1465.2" y="420.7" class="st6" width="394.4" height="225.8"/>
	<rect x="1494.3" y="449.8" class="st0" width="336.3" height="167.7"/>
	<line class="st9" x1="1662.1" y1="446.9" x2="1662.1" y2="620.4"/>
	<circle class="st4" cx="1701.7" cy="533.6" r="10.2"/>
	<circle class="st4" cx="1623.1" cy="533.6" r="10.2"/>
	<rect x="980.8" y="610" class="st6" width="142.5" height="16.5"/>
	<path class="st5" d="M1146.7,695.5l-35.3-211.8h21.6c4.8,0,8.7-3.9,8.7-8.7c0-4.8-3.9-8.7-8.7-8.7H971.2c-4.8,0-8.7,3.9-8.7,8.7
		c0,4.8,3.9,8.7,8.7,8.7h21.4l-35.3,211.8c-0.7,4,2,7.8,6,8.4c0.4,0.1,0.8,0.1,1.2,0.1l0,0c3.4,0,6.4-2.4,7.1-5.8l46.8-214.5h67.1
		l46.8,214.5c0.7,3.4,3.7,5.8,7.2,5.8l0,0c4,0,7.3-3.3,7.3-7.3C1146.8,696.3,1146.8,695.9,1146.7,695.5z"/>
	<path class="st6" d="M1133,483.7c4.8,0,8.7-3.9,8.7-8.7c0-4.8-3.9-8.7-8.7-8.7H971.2c-4.8,0-8.7,3.9-8.7,8.7c0,4.8,3.9,8.7,8.7,8.7
		h21.4v0.3h25.8l0.1-0.3h67.1l0.1,0.3h25.8v-0.3H1133z"/>
	<path class="st10" d="M1142.6,609.7h103c1.3-21.9,5.8-50.9,9.6-90.1c3.4-34.8,6.3-63.9,6.1-88c-0.3-40.1-103,8.4-103,8.4
		c0,8.8,1.8,17.2,1.8,25.3c0.1,21.2-10.6,39.2-18.3,64.8c-11.6,38.8-1.9,79.5-1.9,79.5H1142.6z"/>
	<path class="st11" d="M1251.1,693.1h-90.2c-2.9,0.9-4.5,4-3.6,6.9c0.7,2.3,2.8,3.8,5.2,3.8l132.7,0.2c1.2-12.9-6.2-22.6-26.8-37
		C1256.6,677.2,1251.1,693.1,1251.1,693.1z"/>
	<path class="st6" d="M1263.8,663.9c-4.3-2.8-8-6.3-10.9-10.5c-7-10.3-8.5-24.1-7.3-43.6h-89.3c0.2,14.6,1.2,29.1,3.1,43.6
		c2.3,16.4,5.4,27.6,7.8,39.5h-4.7c-0.6,0-1.1,0.1-1.7,0.3h90.2c0,0,5.5-15.8,17.3-26C1266.9,666,1265.4,665,1263.8,663.9z"/>
	<path class="st8" d="M1246.6,592.2c-5.5-11-9.3-22.8-11.2-34.9c-6.5-45.4-2.7-68.6-21.1-89h-53.9"/>
	<path class="st10" d="M1280.2,613.6l0.1,0.2l79.5-37.2c-6.2-18.5-12.7-43.2-23.3-75.4c-10-30.2-16.6-52.7-22.8-70.2
		c-19.3,13.9-46.3,9.5-60.2-9.8c-12.2-16.9-10.5-40,3.9-55c-42.4-19.2-193.2-31.7-193.2-31.7l-85.3-12.6c-4.5,7.4-8.3,19.2-10.4,33
		h29.8v31.9c0,13.4-10.9,24.3-24.3,24.3h-1.7c-0.4,0-0.8,0-1.2,0c8.1,30,29.1,55.3,71.8,55.3h172.5c18.4,20.3,14.5,43.6,21.1,89
		c5.3,37.1,30.7,64.5,30.7,64.5L1280.2,613.6z"/>
	<path class="st11" d="M1401.4,656.2l-79.2,35.9c-3,2.1-3.7,6.1-1.6,9.1c1.8,2.6,5.3,3.5,8.1,2.2l120.2-56c-4.7-13-16.8-18-45.5-23
		l-1.2-0.2C1399.8,634.7,1399.5,645.6,1401.4,656.2z"/>
	<path class="st6" d="M1402.1,624.1c-8.3-1.6-14.7-4.3-20.1-8.5c-9.9-7.7-15.9-20.2-22.2-39l-79.5,37.2c6.7,15.5,16.2,31.8,25.2,46
		c7.9,12.4,15.4,23.2,20.4,30.4l-2.9,1.4c-0.3,0.2-0.6,0.3-0.9,0.6l79.2-35.9C1399.5,645.6,1399.7,634.7,1402.1,624.1z"/>
	<path class="st11" d="M1288.6,439.2c9,0,17.9-2.8,25.2-8.2c-12.4-34.9-23.2-49.4-55.7-64.5l-0.6-0.3c-16.5,17.2-15.9,44.5,1.3,61
		C1266.8,434.8,1277.5,439.1,1288.6,439.2L1288.6,439.2z"/>
	<path class="st11" d="M974,411c13.4,0,24.3-10.9,24.3-24.3v-31.9h-29.8c-2.6,17.3-2.5,37.6,2.6,56.2c0.4,0,0.8,0,1.2,0L974,411z"/>
	<line class="st8" x1="1214" y1="468.7" x2="1243" y2="468.7"/>
	<path class="st8" d="M1339,160.5c0,0-52.3-60.1-114.2-81.9"/>
	<path class="st12" d="M1174.9,102.1c-1.9-4.6,4.4-11.8,15-17.9c-14.3-3.6-24.5-10.2-23.4-15.8s12.9-8.2,27.5-6.5
		c-7.7-9.4-11.1-18.4-7.7-22c4.3-4.6,18.1,1.2,30.7,13c11,10.3,17.5,21.8,16.1,27.6c-0.8,5.9-10.9,14.4-24.8,20.1
		C1192.2,107.4,1177.3,108,1174.9,102.1z"/>
	<g>
		<defs>
			<path id="SVGID_1_" d="M1174.9,102.1c-1.9-4.6,4.4-11.8,15-17.9c-14.3-3.6-24.5-10.2-23.4-15.8s12.9-8.2,27.5-6.5
				c-7.7-9.4-11.1-18.4-7.7-22c4.3-4.6,18.1,1.2,30.7,13c11,10.3,17.5,21.8,16.1,27.6c-0.8,5.9-10.9,14.4-24.8,20.1
				C1192.2,107.4,1177.3,108,1174.9,102.1z"/>
		</defs>
		<clipPath id="SVGID_2_">
			<use xlink:href="#SVGID_1_"  style="overflow:visible;"/>
		</clipPath>
		<g class="st13">
			<circle class="st4" cx="1233.6" cy="81" r="18.3"/>
		</g>
	</g>
	
		<ellipse transform="matrix(-0.3481 -0.9375 0.9375 -0.3481 1633.4736 1268.6366)" class="st4" cx="1257.8" cy="66.4" rx="40.7" ry="9.7"/>
	<path class="st8" d="M1271.1,108.2c0,0,7.8,21.3,3.9,43.6"/>
	<path class="st14" d="M1010.9,315.1l93.1,1.9c0,0,2.3-3.4,5.8-8.5l-109-2.7L1010.9,315.1z"/>
	<path class="st6" d="M1129.6,23.3c-16.5,18.6-34.1,22.7-34.1,22.7c-11.4-12.4-32-12.4-35.2,5.2C1056.9,70.6,1081,76,1081,76
		s6.1,25.1-3.2,37.5c-8.2,11-18.8,12.8-40.4,15.2c28.2,47.7,57,43.9,66.6,43.9c23,0,29.5-26.7,31.3-40.5c-5.2-1.8-10.6-3.3-16-4.5
		l-3.1-18.6c0,0,14.5,5.2,26.9-2.1c12.4-7.2,15.5-20.7,11.4-41.4c-2.5-12.2-2.4-27.4-4.5-40.9C1141.7,26.1,1129.6,23.3,1129.6,23.3z
		"/>
	<path class="st6" d="M1301.7,127.1c-4.4-17.6-38.8-27.1-38.8-27.1s2.1-39.4-6.8-40.7c-6.8-1-13.6,15.5-19.4,47.5
		c-6.5,35.7-2.9,101.8-2.9,101.8s-7.2-6.5-17.4-15.6c-2.1,4.2-6.3,6.9-11,7c4.3,5.5,3.4,13.4-2.1,17.7c-2.2,1.7-4.8,2.6-7.5,2.7
		c4.3,5.5,3.4,13.4-2.1,17.7c-2.2,1.7-4.8,2.6-7.5,2.7c4.3,5.5,3.4,13.4-2.1,17.7c-2.5,2-5.7,2.9-8.9,2.7
		c21.2,13.8,50.1,29.9,69.3,29.9C1345.3,290.9,1304.6,138.7,1301.7,127.1z"/>
	<path class="st5" d="M1187.6,253.8c2-4.3,1.5-9.4-1.5-13.2c6.9-0.1,12.5-5.9,12.3-12.8c-0.1-2.7-1-5.4-2.7-7.5
		c6.9-0.1,12.5-5.9,12.3-12.8c-0.1-2.7-1-5.4-2.7-7.5c4.7-0.1,8.9-2.8,11-7c-17.6-15.7-44.1-38.9-58.2-49.3c-6.8-5-15.5-8.8-23-11.4
		c-1.8,13.8-8.2,40.5-31.2,40.5c-9.6,0-38.4,3.8-66.6-43.9l-9.1,1c-31.2,3.5-45.4,20.3-53.8,40.3c-5.2,12.4-9.3,35.2-9.3,35.2
		c-3.2,20.8-4.9,41.9-4.9,63l40.6,37.5l108.9,2.7c8.7-12.9,24.7-36.6,30-45.7c6.8-11.6,7.8-21.3,7.8-21.3s11.6,9.1,27.6,19.5
		C1180.4,261.4,1185.4,258.5,1187.6,253.8z"/>
	<path class="st4" d="M1141,0.5c-12.4-15.5-46.5-25.8-73.4-6.2s-24.8,51.7-23.8,64.1c0,0-28.9-9.3-49.6,12.4
		c-12.2,12.6-17.2,30.5-13.4,47.6c0,0-38.1-1.1-45.5,34.1c-4.2,20,3.6,33.3,12.4,41.6c5.1,4.8,11.1,8.6,17.6,11.2
		c0,0,4.1-22.7,9.3-35.2c8.4-20.1,22.6-36.9,53.8-40.3l9.1-1c21.6-2.4,32.2-4.3,40.4-15.2c9.3-12.4,3.2-37.5,3.2-37.5
		s-24.1-5.4-20.7-24.8c3.1-17.6,23.8-17.6,35.1-5.2c0,0,17.6-4.1,34.1-22.7c0,0,12.1,2.8,20.3,1.5C1148.5,15.4,1146.1,6.9,1141,0.5z
		"/>
	<path class="st15" d="M1303.8,140.9c-2.9-1.4-4.7-4.8-4.2-11.2c0,0-6.1,7.6-12.5,4.2s-3.9-10.7-3.9-10.7s-5.8,3.9-10.7-1
		c-4.4-4.4-1-11.6-1-11.6s-6.4,2.6-8.7-1.9c-2.9-5.7,0.6-11.7,4.4-16.3"/>
	<path class="st16" d="M978.9,119.2c1.1,5.2,3.1,10.1,5.8,14.6"/>
	<line class="st8" x1="1231.9" y1="209.8" x2="1234.3" y2="240"/>
	<path class="st8" d="M1144.2,208c6.3,11.4,6.2,25.1,5.4,33.2"/>
	<line class="st8" x1="1087" y1="240" x2="1056" y2="241"/>
	<path class="st8" d="M1115.6,111c-4.3-1.7-8.6-3.7-12.7-5.9"/>
	<line class="st8" x1="1123.3" y1="139.7" x2="1121.7" y2="129"/>
	<line class="st16" x1="1041.7" y1="58.8" x2="1043.9" y2="76.7"/>
	<path class="st8" d="M1144.2,80.1c-2.2,1.4-9.4,1.9-12.9-4.4"/>
	<line class="st8" x1="1086" y1="59.7" x2="1076.3" y2="54.9"/>
	<path class="st8" d="M1130.8,55.5c-1.6,2.1-8.9,6.2-14.4,1.5"/>
	<path class="st8" d="M1154.3,52.4c-2.3,0.5-4.8,0-6.8-1.3"/>
	<path class="st8" d="M1141.2,56c1.1,2.5,2.2,5.3,2,6.3c-0.3,1.3-1.1,2.4-2.2,3.2"/>
	<path class="st17" d="M1080.7,71.5l-13.2,12.5c-2.3,2.2-2.4,5.8-0.2,8.1c0.6,0.7,1.4,1.2,2.2,1.5l15.6,5.5c3,1.1,6.3-0.5,7.4-3.5
		c0.3-0.9,0.4-1.8,0.3-2.7l-2.4-18c-0.4-3.2-3.3-5.4-6.5-4.9C1082.7,70.1,1081.6,70.6,1080.7,71.5z"/>
	<path class="st6" d="M1270.7,74.8c0,0,6.8-3.9,12.6-1.9c9,3,7.7,11.4,7.7,11.4s12.6-4.5,15.1,8.8c0,0,11.4,2.5,8.8,13.9
		c0,0,9.2,0.5,7.4,12.6c-1.8,12.1-9.9,22.1-14.7,22.1c-5,0-8.5-3.1-7.8-12c0,0-6.1,7.6-12.5,4.2c-6.5-3.4-3.9-10.7-3.9-10.7
		s-5.8,3.9-10.7-1c-4.4-4.4-1-11.6-1-11.6s-6.4,2.6-8.7-1.9c-4.8-9.7,8.5-20.1,10.7-23.2L1270.7,74.8z"/>
	<path class="st8" d="M1267.8,114c6.7-6.1,18-17.6,23.4-29.7"/>
	<path class="st8" d="M1280,128c11.1-9.4,20.1-21,26.6-34"/>
	<path class="st8" d="M1297.1,135.2c3-3.7,13.5-16.8,18.7-27.2"/>
	<path class="st4" d="M1295.2,357.8h-167.8l38.2-120.5c2.3-7.3,9.1-12.2,16.7-12.2h141.8c9.7,0,17.5,7.8,17.5,17.5
		c0,1.8-0.3,3.6-0.8,5.3l-31.5,99.7C1307.3,353.6,1301.7,357.7,1295.2,357.8z"/>
	<path class="st4" d="M1030,344.2c-1.7,5.5,1.3,11.3,6.8,13.1c1,0.3,2.1,0.5,3.1,0.5h255.3c6.4,0,12.1-4.2,14-10.3l1-3.3H1030z"/>
	<path class="st5" d="M1269.5,281c-3.9-5.3-21.6,8.8-22.9,9.9c-0.7-1.2-9.9-15.3-16.7-9.9c-5.9,4.6,7,25.3,10.5,30.6
		c0.6,0.6,1.5,0.7,2.2,0.1c0,0,0.1-0.1,0.1-0.1C1249,306.2,1272.9,285.6,1269.5,281z"/>
	
		<ellipse transform="matrix(-0.9548 -0.2974 0.2974 -0.9548 2362.5432 912.1905)" class="st5" cx="1250.7" cy="276.4" rx="2.8" ry="8.6"/>
	<path class="st5" d="M933.8,248.5c4.4,1.7,9.5,0.8,13-2.4c0.6,6.9,6.7,12,13.6,11.4c2.7-0.2,5.3-1.4,7.4-3.2
		c0.6,6.9,6.7,12,13.7,11.4c2.7-0.2,5.3-1.4,7.3-3.2c0.6,6.9,6.7,12,13.6,11.4c0.8-0.1,1.6-0.2,2.3-0.4l15.1-40.6
		c5.8-15.6,8.6-32.2,8.1-48.8l-1.5-54c0,0-34.9,2.9-55.2,28.1c-10.4,12.9-30.9,47.1-44.1,84.2C928.5,245.1,930.9,247.3,933.8,248.5z
		"/>
	<path class="st6" d="M996.8,273c-4.5-1.7-7.6-5.8-8-10.6c-5.1,4.7-13.1,4.3-17.8-0.8c-1.8-2-3-4.6-3.2-7.3
		c-5.1,4.7-13.1,4.3-17.8-0.8c-1.9-2-3-4.6-3.2-7.4c-5.1,4.7-13.1,4.3-17.8-0.8c-0.8-0.9-1.4-1.8-2-2.9
		c-11.4,32.2-17.2,66.6-6.2,91.4c23.7,53.4,94.9,34.6,111.7,29.7c16.8-4.9,49.4-21.8,71.2-18.8s46.5,13.8,50.4,0
		c0,0,13.3-0.3,9.1-13c0,0,6.7-0.8,7.7-5.8c2-9.9-21.8-18.8-21.8-18.8s18.8,3,22.7-1c5-5,0.1-13.1-30.6-20.5
		c-33.7-8.2-78.2-3.2-144.4,8.6l7.8-20.8C1002.1,274.1,999.3,274,996.8,273z"/>
	<line class="st8" x1="1020.1" y1="227.4" x2="998" y2="292"/>
	<path class="st8" d="M1155.2,307.8c-10.7-4.1-28.6-10.3-42.5-12.6"/>
	<path class="st8" d="M1163.6,331.1c-13.8-6.2-40.2-17.5-54.3-19.6"/>
	<path class="st8" d="M997.1,292.1c-7.4,1.2-19.1,3.2-30.8,5.5"/>
	<path class="st8" d="M1153.8,346c-10.3-5.3-32.2-15.8-47.5-18.7"/>
	<path class="st11" d="M1617,218.4c0,0-7.9,17.7-28.5,17.7s-28.5-17.7-28.5-17.7s-58,132.6-1,202.3h58.9
		C1674.9,351,1617,218.4,1617,218.4z"/>
	<path class="st4" d="M1588.5,236.1c20.6,0,28.5-17.7,28.5-17.7h-57C1559.9,218.4,1567.8,236.1,1588.5,236.1z"/>
	<path class="st18" d="M1641.7,336.5c-32.1,0.6-70,12.2-99.2,53"/>
	<path class="st18" d="M1537.4,304c21.5-5.2,62.3-10.2,101.8-0.8"/>
	<path class="st18" d="M1639,370.5c-14.3,0.2-40.8,16.4-37.9,49.2"/>
	<path class="st19" d="M1584.9,230.2c-0.6-14.2-4.4-70.9-26.9-104.1"/>
	
		<ellipse transform="matrix(-0.8613 -0.5081 0.5081 -0.8613 2784.9722 1087.2925)" class="st4" cx="1540.9" cy="163.5" rx="45.6" ry="10.2"/>
	
		<ellipse transform="matrix(-0.4953 -0.8687 0.8687 -0.4953 2311.2219 1389.5786)" class="st4" cx="1559.3" cy="23.4" rx="25.2" ry="8.8"/>
	<path class="st12" d="M1497.5,96.6c2.3-5,12.9-5.4,25.9-1.5c-8-14.3-10.4-27.6-5.2-31s16.5,4.2,26.3,17.3c1.7-13.4,6.4-23,12-23.1
		c7.1,0,12.8,15.6,12.9,34.8c0,5.5-0.4,11-1.5,16.4c-10.2-4.7-22.3-0.2-26.9,10c-1.2,2.6-1.8,5.4-1.8,8.2c-5.2-1.3-10.2-3-15.1-5.2
		C1506.5,114.7,1494.6,103.1,1497.5,96.6z"/>
	<path class="st4" d="M1548.4,111c5.8-3.8,13.2-4.3,19.5-1.4c-1.7,9-4.8,15.6-8.6,17.8c-3.6,2.6-11.1,2.7-20.2,0.5
		C1539.2,121,1542.7,114.7,1548.4,111z"/>
	<path class="st19" d="M1592.4,229.3c2.8-15.7,17.1-92.9,40.1-136.6"/>
	
		<ellipse transform="matrix(-0.9513 -0.3082 0.3082 -0.9513 3178.5435 867.5311)" class="st4" cx="1657.8" cy="182.8" rx="55" ry="9.7"/>
	<path class="st12" d="M1628.2,25.1c5.5-0.5,11.1,8.6,14.1,21.8c8.5-14,18.9-22.7,24.5-19.7s4.4,16.4-2.2,31.4
		c12.6-5.1,23.2-5.7,26-0.9c3.5,6.1-7.3,18.8-24,28.3c-4.8,2.7-9.8,5-15,6.8c-0.9-11.2-10.8-19.5-22-18.5c-2.8,0.2-5.5,1.1-8,2.4
		c-1.4-5.1-2.4-10.4-2.8-15.7C1616.8,41.8,1621.1,25.8,1628.2,25.1z"/>
	<path class="st4" d="M1640.6,76.5c6.2,3.2,10.2,9.4,10.8,16.3c-8.7,2.9-16,3.4-19.7,1.2c-4-1.8-7.8-8.4-10.3-17.4
		C1627.4,73.4,1634.6,73.4,1640.6,76.5z"/>
	<path class="st12" d="M1687.8,116.7L1687.8,116.7c-10.4,4.4-15.3,16.3-11.1,26.6c3.8,9.1,13.5,14.2,23.2,12.1v0.1
		c-26.3,8.3-50.4,6.2-53.8-4.5S1661.4,124.9,1687.8,116.7z"/>
	<path class="st0" d="M1681.5,150.3c5.1-2,7.5-7.8,5.5-12.8c-1.8-4.5-6.7-7.1-11.4-5.9c1.3-6.7,5.9-12.2,12.2-14.8l12.1,38.7
		C1693.3,156.9,1686.4,155,1681.5,150.3z"/>
	<path class="st4" d="M1687.2,138.2c1.5,4.9-0.9,10.2-5.7,12.1c-5.1-4.8-7.3-11.9-5.9-18.8C1680.6,130.4,1685.7,133.3,1687.2,138.2z
		"/>
</g>
</svg>
