<svg version="1.0" xmlns="http://www.w3.org/2000/svg" width="120" height="50" viewBox="0 0 1647 450" fill="none"><metadata>Created by potrace 1.15, written by Peter Selinger 2001-2017</metadata><g transform="translate(0.000000,450.000000) scale(0.100000,-0.100000)" fill="#121212" stroke="none"><path d="M5585 4374 c-166 -37 -288 -128 -354 -264 -35 -73 -36 -79 -36 -185 1 -91 5 -120 24 -168 46 -117 159 -219 293 -267 87 -31 304 -40 399 -16 192 49 329 178 368 347 15 63 13 175 -3 237 -39 147 -163 260 -336 308 -83 23 -270 27 -355 8z"></path><path d="M8725 4373 c-98 -21 -185 -65 -255 -129 -181 -168 -185 -458 -10 -634 105 -105 231 -150 417 -150 134 0 195 12 288 55 81 37 150 95 195 162 80 122 94 315 33 446 -79 167 -275 269 -515 266 -46 0 -114 -7 -153 -16z"></path><path d="M1024 3320 c-209 -20 -418 -81 -563 -162 -112 -63 -247 -200 -294 -298 -51 -104 -67 -176 -67 -296 0 -116 24 -226 67 -307 15 -29 60 -84 99 -124 138 -137 317 -199 729 -252 264 -34 300 -41 339 -72 49 -38 25 -94 -53 -121 -63 -23 -355 -16 -488 10 -144 29 -279 73 -390 127 -48 24 -89 43 -89 42 -1 -1 -49 -117 -107 -257 -58 -140 -115 -277 -126 -303 l-21 -48 93 -44 c377 -178 1025 -227 1436 -109 314 91 524 274 597 519 24 80 24 255 1 345 -76 289 -302 434 -782 500 -312 42 -358 50 -401 69 -49 22 -59 38 -50 76 15 58 162 92 350 81 179 -11 340 -51 494 -123 41 -19 76 -32 79 -30 4 5 253 598 253 603 0 9 -198 81 -286 105 -229 61 -591 91 -820 69z"></path><path d="M3789 3320 c-154 -18 -292 -72 -392 -153 l-57 -47 0 85 0 85 -435 0 -435 0 0 -1495 0 -1495 460 0 460 0 0 455 0 455 59 -40 c138 -94 258 -124 491 -124 157 1 185 4 275 27 115 31 261 98 349 161 74 53 198 181 247 256 150 228 219 526 189 825 -34 347 -178 622 -422 805 -215 162 -498 234 -789 200z m85 -746 c107 -52 177 -163 197 -313 28 -206 -49 -392 -195 -469 -46 -24 -62 -27 -151 -27 -86 0 -107 4 -150 25 -138 68 -217 240 -202 440 15 181 101 312 239 362 76 27 185 20 262 -18z"></path><path d="M8019 3319 c-206 -22 -391 -100 -511 -217 l-48 -46 0 117 0 117 -435 0 -435 0 0 -1105 0 -1105 460 0 460 0 0 533 c0 502 1 539 20 613 36 140 117 230 247 276 58 20 87 23 203 23 74 0 150 -3 168 -7 l32 -7 0 409 0 410 -42 -1 c-24 -1 -77 -5 -119 -10z"></path><path d="M11125 3319 c-164 -21 -328 -87 -445 -178 l-65 -50 -3 99 -3 100 -439 0 -440 0 0 -1105 0 -1105 459 0 460 0 3 588 c3 586 3 587 27 653 30 88 83 155 150 193 46 25 68 31 140 34 79 4 90 2 141 -25 39 -20 63 -42 82 -73 57 -93 58 -109 58 -767 l0 -603 460 0 460 0 0 693 c0 561 -3 711 -15 791 -67 445 -323 703 -750 755 -102 12 -179 12 -280 0z"></path><path d="M13395 3319 c-160 -21 -345 -91 -477 -180 -81 -55 -203 -176 -258 -258 -109 -163 -168 -346 -177 -557 -9 -202 22 -370 96 -530 182 -389 572 -613 1026 -591 199 10 336 56 469 156 l69 52 -6 -78 c-14 -198 -123 -322 -324 -369 -88 -20 -279 -20 -398 1 -157 28 -345 99 -448 169 -21 14 -41 26 -45 26 -5 0 -292 -574 -310 -620 -4 -11 112 -76 221 -122 408 -176 1068 -209 1473 -73 183 61 299 130 427 254 175 169 284 410 316 704 7 62 11 433 11 1042 l0 945 -435 0 -435 0 0 -117 0 -117 -57 58 c-101 104 -206 159 -358 191 -98 20 -285 27 -380 14z m553 -744 c75 -34 151 -110 178 -180 13 -35 19 -75 19 -135 0 -72 -4 -94 -27 -140 -15 -30 -35 -64 -45 -76 -141 -160 -425 -166 -569 -12 -69 74 -89 125 -89 233 0 104 19 156 81 224 76 85 178 123 310 117 61 -3 96 -10 142 -31z"></path><path d="M5280 2185 l0 -1105 460 0 460 0 0 1105 0 1105 -460 0 -460 0 0 -1105z"></path><path d="M8420 2185 l0 -1105 460 0 460 0 0 1105 0 1105 -460 0 -460 0 0 -1105z"></path><path d="M15774 2081 c-321 -51 -506 -337 -424 -655 57 -225 238 -369 481 -383 326 -20 568 205 569 527 0 241 -146 435 -371 495 -69 19 -190 26 -255 16z"></path></g></svg>