<?xml version="1.0" encoding="utf-8"?>
<!-- Generator: Adobe Illustrator 19.0.0, SVG Export Plug-In . SVG Version: 6.00 Build 0)  -->
<svg version="1.1" id="Layer_1" xmlns="http://www.w3.org/2000/svg" xmlns:xlink="http://www.w3.org/1999/xlink" x="0px" y="0px"
	 viewBox="824.4 -174.3 1079.6 870.6" style="enable-background:new 824.4 -174.3 1079.6 870.6;" xml:space="preserve">
<style type="text/css">
	.st0{fill:#F5EBDD;}
	.st1{fill:#FFB7D5;}
	.st2{fill:#3EC1F3;}
	.st3{fill:#4756DF;}
	.st4{fill:#30242A;}
	.st5{fill:none;stroke:#30242A;stroke-width:4;stroke-miterlimit:10;}
	.st6{fill:#A15842;}
	.st7{fill:none;stroke:#A15842;stroke-width:4;stroke-miterlimit:10;}
	.st8{fill:none;stroke:#FFB7D5;stroke-width:4;stroke-miterlimit:10;}
	.st9{fill:none;stroke:#30242A;stroke-width:4;stroke-linecap:round;stroke-miterlimit:10;}
	.st10{fill:#FF7235;}
	.st11{fill:none;stroke:#30242A;stroke-width:4;stroke-linecap:round;stroke-linejoin:round;}
	.st12{fill:#FFBE21;}
	.st13{fill:none;stroke:#CA7358;stroke-width:4;stroke-linecap:round;stroke-linejoin:round;}
	.st14{fill:none;}
	.st15{fill:none;stroke:#A15842;stroke-width:4;stroke-linecap:round;stroke-linejoin:round;}
	.st16{fill:none;stroke:#F5EBDD;stroke-width:4;stroke-linecap:round;stroke-linejoin:round;}
	.st17{fill:none;stroke:#F5EBDD;stroke-width:4;stroke-linecap:round;stroke-miterlimit:10;}
</style>
<title>wfh_10</title>
<g id="Layer_8">
	<path class="st0" d="M1655.8-19.1h-245.7c-9.5,0-17.2,7.7-17.2,17.2V149h280V-1.9C1673-11.4,1665.3-19,1655.8-19.1z"/>
	<path class="st1" d="M1527-44c3.3,0,5.9,2.6,5.9,5.9V57c0,3.3-2.6,5.9-5.9,5.9h-96.1c-3.3,0-5.9-2.7-5.9-5.9v-95.1
		c0-3.3,2.6-5.9,5.9-5.9H1527 M1527-48h-96.1c-5.5,0-9.9,4.4-9.9,9.9c0,0,0,0,0,0V57c0,5.5,4.4,9.9,9.9,9.9h96.1
		c5.5,0,9.9-4.4,9.9-9.9v-95.1C1536.9-43.6,1532.5-48,1527-48z"/>
	<path class="st1" d="M1679.1,66.5c3.3,0,5.9,2.6,5.9,5.9v95.1c0,3.3-2.6,5.9-5.9,5.9h-95.6c-3.3,0-5.9-2.6-5.9-5.9V72.4
		c0-3.3,2.6-5.9,5.9-5.9L1679.1,66.5 M1679.1,62.5h-95.6c-5.5,0-9.9,4.4-9.9,9.9v95.1c0,5.5,4.4,9.9,9.9,9.9h95.6
		c5.5,0,9.9-4.4,9.9-9.9l0,0V72.4C1689,67,1684.6,62.5,1679.1,62.5L1679.1,62.5z"/>
	<path class="st1" d="M1434.2,90.2c3.3,0,5.9,2.6,5.9,5.9v61c0,3.3-2.6,5.9-5.9,5.9h-54.3c-3.3,0-5.9-2.6-5.9-5.9v-61
		c0-3.3,2.6-5.9,5.9-5.9H1434.2 M1434.2,86.2h-54.3c-5.5,0-9.9,4.4-9.9,9.9v61c0,5.5,4.4,9.9,9.9,9.9h54.3c5.5,0,9.9-4.4,9.9-9.9
		v-61C1444.2,90.6,1439.7,86.2,1434.2,86.2z"/>
	<rect x="1435.5" y="-34.5" class="st1" width="86.9" height="60.8"/>
	<path class="st2" d="M1490.8,5.8h84.3c12.4,0,22.5,10.1,22.5,22.5v72.8c0,12.4-10.1,22.5-22.5,22.5h-84.3
		c-12.4,0-22.5-10.1-22.5-22.5V28.3C1468.3,15.9,1478.4,5.8,1490.8,5.8z"/>
	<path class="st1" d="M1451.8,39.3c-1.8-1.8-4.8-1.8-6.6,0l-1,1l-1-1c-1.9-1.7-4.8-1.6-6.6,0.3c-1.6,1.8-1.6,4.5,0,6.3l1,1l6.6,6.6
		l6.6-6.6l1-1C1453.6,44,1453.6,41.1,1451.8,39.3z"/>
	<path class="st3" d="M1509.1,40.1h31.4c5.5,0,9.9,4.4,9.9,9.9v29.4c0,5.5-4.4,9.9-9.9,9.9h-31.4c-5.5,0-9.9-4.4-9.9-9.9V50
		C1499.2,44.5,1503.6,40.1,1509.1,40.1z"/>
	<path class="st3" d="M1542.9,68.8l18.1,14.5c2,1.6,5,1.3,6.6-0.7c0.7-0.8,1-1.9,1-3V50.6c0-2.6-2.1-4.7-4.7-4.7c-1.1,0-2.1,0.4-3,1
		l-18.1,14.5c-2,1.6-2.4,4.6-0.8,6.6C1542.4,68.3,1542.7,68.5,1542.9,68.8z"/>
	<path class="st3" d="M1669.6-48h-273.1c-17.9,0-32.4,14.5-32.4,32.4v190.1c0,17.9,14.5,32.4,32.4,32.4h273.1
		c17.9,0,32.4-14.5,32.4-32.4V-15.6C1702-33.5,1687.5-48,1669.6-48z M1673,149h-280V-1.9c0-9.5,7.7-17.2,17.2-17.2l0,0h245.7
		c9.5,0,17.2,7.7,17.2,17.2L1673,149z"/>
	<path class="st3" d="M1506.9,165.4h52.2c10.7,0,19.3,8.6,19.3,19.3l0,0v58.9c0,10.7-8.7,19.3-19.3,19.3h-98.5c-3.7,0-6.8-3-6.8-6.8
		l0,0l0,0c0-3.7,3-6.8,6.8-6.8l0,0h27v-64.7C1487.6,174,1496.2,165.4,1506.9,165.4C1506.9,165.4,1506.9,165.4,1506.9,165.4z"/>
	<circle class="st2" cx="1533" cy="177.9" r="12.1"/>
	<circle class="st4" cx="1533" cy="-33.6" r="3.9"/>
	<line class="st5" x1="1578.4" y1="208.8" x2="1487.4" y2="208.8"/>
	<path class="st1" d="M1253.6,262.9h471.8c11,0,20,9,20,20v412.6l0,0h-511.8l0,0V282.9C1233.6,271.9,1242.6,262.9,1253.6,262.9z"/>
	<path class="st6" d="M1559.4,310.4v70.2h-278.3v-70.2H1559.4 M1563.4,306.4h-286.3v78.2h286.3V306.4z"/>
	<circle class="st6" cx="1420.3" cy="345.5" r="12.1"/>
	<path class="st6" d="M1559.4,432.1v216h-278.3v-216H1559.4 M1563.4,428.1h-286.3v224h286.3V428.1z"/>
	<circle class="st6" cx="1378.7" cy="540.1" r="12.1"/>
	<circle class="st6" cx="1461.8" cy="540.1" r="12.1"/>
	<line class="st7" x1="1421" y1="430" x2="1421" y2="650.2"/>
	<rect x="1606.9" y="306.4" class="st6" width="95.1" height="345.7"/>
	<line class="st8" x1="1702" y1="479.2" x2="1606.4" y2="479.2"/>
	<path class="st2" d="M878.7,262.9h335.7c11,0,20,9,20,20v412.6l0,0H858.7l0,0V282.9C858.7,271.9,867.6,262.9,878.7,262.9z"/>
	<rect x="916.2" y="384.6" class="st4" width="260.8" height="267.5"/>
	<polygon class="st3" points="1176.9,652.1 916.2,652.1 824.4,464.8 1085.2,464.8 	"/>
	<polygon class="st4" points="1006.9,262.9 916.2,262.9 925.8,242.6 997.3,242.6 	"/>
	<polygon class="st4" points="1176.9,262.9 1086.1,262.9 1095.8,242.6 1167.2,242.6 	"/>
	<circle class="st0" cx="934" cy="324.2" r="17.9"/>
	<line class="st9" x1="914.2" y1="324.2" x2="928.7" y2="324.2"/>
	<circle class="st0" cx="1009" cy="324.2" r="17.9"/>
	<line class="st9" x1="1009" y1="304.5" x2="1009" y2="318.9"/>
	<circle class="st0" cx="1084" cy="324.2" r="17.9"/>
	<line class="st9" x1="1084" y1="304.5" x2="1084" y2="318.9"/>
	<circle class="st0" cx="1159" cy="324.2" r="17.9"/>
	<line class="st9" x1="1159" y1="304.5" x2="1159" y2="318.9"/>
	<path class="st4" d="M910.6,500.5h136.2c3.5,0,6.3,2.8,6.3,6.3v0c0,3.5-2.8,6.3-6.3,6.3H910.6c-3.5,0-6.3-2.8-6.3-6.3v0
		C904.3,503.3,907.1,500.5,910.6,500.5z"/>
	<path class="st6" d="M1236.5-122.4c-17.8,11.4-5.8,35.7,10.6,36.7c6.3,14.7,7,31.2,1.9,46.4h25l0.1-10.5
		c22.9,5.7,31.3-3.3,35.7-11.4c5-9.2,3.5-17.8,1.8-29c0,0,8.2-3.2,7.6-8.2c-0.5-4-9.2-5.5-9.2-5.5c-0.1-1.8-0.2-3.6-0.3-5.5
		c-0.1-5-0.5-10-1.1-15c-19.2,10.2-43.1,15.5-43.1,15.5S1250.1-131.1,1236.5-122.4z"/>
	<path class="st6" d="M1534.1,241.5c10.5,4,18.2-2.8,16.3-6.6c-1.3-2.5-37.5-29.7-74.9-57.3l-42.8,53.4c9.8,3.8,16.3,5.9,16.3,5.9
		s10.6,16.4,26.1,26.1c0,0,16.4,39.6,25.1,38.6c5.8-0.7-1.9-23.2-3.9-32.8c0,0,19.3,32.8,31.9,32.8c2.9,0,5.6-2,5.8-6.8
		c0,0,6.4,1.8,8.7-2.9c1-1.9,1-4.8,1-6.8c0,0,5,1.4,7.7-1.9C1556,277.7,1545.9,259.3,1534.1,241.5z"/>
	<path class="st10" d="M1131.3,71.7c-0.5-0.4-1.1-0.9-1.7-1.4C1130.1,70.7,1130.7,71.2,1131.3,71.7z"/>
	<path class="st10" d="M1393,117.1c0,0-44.6-102.6-62.8-126.5c-18.4-24.1-56.2-22.8-56.2-22.8l0.1-7.1h-25c0,0,27,54.1-24.2,77.3
		c-19.3,62.8-79.2,46.4-93.7,33.8c-5.8,10.6-34.8,57.9-19.3,93.7c13.5,28,61.8,22.2,61.8,22.2l9.7-20.3h122.7H1267l31.4-68.5
		l10.7,26c0,0,13.6,34.7,42.5,61.8c20.7,19.3,59.3,35.9,81.2,44.3l42.8-53.4C1434.9,147.6,1393,117.1,1393,117.1z"/>
	<line class="st11" x1="1177.2" y1="123.5" x2="1157.3" y2="132.5"/>
	<line class="st11" x1="1184.4" y1="171.2" x2="1171.4" y2="83.8"/>
	<polygon class="st12" points="1267,167.3 1306.1,167.3 1309,124.8 1298.3,98.7 	"/>
	<path class="st12" d="M1287.8-165.5c-9.7-5.4-25-10.9-42.2-5.5c-31.6,9.9-37.7,37.2-41.9,55.4c-2.9,12.6-5.8,27-5.8,27
		s-54.1,3.9-48.3,58.9c-28.8,6.6-58.9,45.3-35.8,82.2c4.3,6.7,9.6,12.7,15.7,17.7c0.6,0.5,1.2,1,1.7,1.4
		c14.5,12.5,74.4,29,93.7-33.8c51.2-23.2,24.2-77.3,24.2-77.3c5-15.2,4.4-31.7-1.9-46.4c-16.4-1-28.4-25.2-10.6-36.7
		c13.5-8.7,29,13.6,29,13.6s23.9-5.3,43.1-15.5c0,0,0-0.1,0-0.1s15.4-7.4,19.6-21.1C1336-170.7,1304.1-184.2,1287.8-165.5z"/>
	<path class="st11" d="M1307.5,126.3c-5.5-12.9-14.9-35.7-20.7-54.6"/>
	<path class="st11" d="M1494.9,269.8l-3.4-7.9"/>
	<path class="st11" d="M1534,294c-6.3-8.2-19.3-26.5-30-40.7"/>
	<path class="st11" d="M1545,284c-7.7-11.3-19.4-29-27.4-40.4"/>
	<path class="st11" d="M1536.4,241.1c-3.6-5.5-7.7-11.6-12-17.7"/>
	<path class="st13" d="M1290.5-166.3c2.2,1.6,4.7,3.4,6.9,5.2"/>
	<line class="st13" x1="1195.5" y1="-87.5" x2="1193.1" y2="-76"/>
	<path class="st13" d="M1147.7-27.9c1.6,7.9,4.5,15.5,8.7,22.4"/>
	<path class="st11" d="M1273.6-48c-3.8-1.3-7.5-3-11.1-5.1"/>
	<path class="st14" d="M1239,374l-0.3,0.1L1239,374z"/>
	<path class="st14" d="M1240.7,373.2L1240.7,373.2L1240.7,373.2z"/>
	<path class="st14" d="M1237.2,374.5h-0.1H1237.2z"/>
	<path class="st14" d="M1229.8,374.6h-0.2H1229.8z"/>
	<path class="st14" d="M1243.9,371.3L1243.9,371.3z"/>
	<path class="st14" d="M1231.5,374.9h-0.4H1231.5z"/>
	<path class="st14" d="M1235.3,374.8l-0.4,0L1235.3,374.8z"/>
	<path class="st14" d="M1242.4,372.4L1242.4,372.4L1242.4,372.4z"/>
	<path class="st0" d="M1344.7,365.1c-4.4,8.8-15.2,12.3-24,7.9c-3.4-1.7-6.2-4.5-7.9-7.9c-4.4,8.8-15.2,12.3-24,7.9
		c-3.4-1.7-6.2-4.5-7.9-7.9c-4.4,8.8-15.2,12.3-24,7.9c-3.4-1.7-6.2-4.5-7.9-7.9c-0.7,1.3-1.5,2.6-2.5,3.7l0,0
		c26.6,71.8,10.2,106.6,2.5,176.1c-1.6,14.8-2,29.6-1.3,44.4h92.4c3.4-29.3,10.3-68.8,14.2-117.9c-19.2-1.3-33.7-17.9-32.4-37
		c1.2-18.1,16.1-32.2,34.3-32.4c0.3,0,0.7,0,1,0c0-9.4-0.3-18.5-0.8-27.6C1351.4,373.2,1347.1,369.8,1344.7,365.1z"/>
	<path class="st0" d="M1217.2,365.1c-4.4,8.8-15.2,12.3-24,7.9c-3.4-1.7-6.2-4.5-7.9-7.9c-4.4,8.8-15.2,12.3-24,7.9
		c-3.4-1.7-6.2-4.5-7.9-7.9c-4.4,8.8-15.2,12.3-24,7.9c-1.2-0.6-2.3-1.3-3.4-2.2c-9,26.5-19.4,35.1-65.4,105.5
		c-12.1,18.6-22.5,38.3-31.1,58.7l83,42.2c17.3-28.8,43.6-63.9,65.6-99c-16.6-9.7-22.2-31-12.5-47.5c9-15.4,28.2-21.5,44.5-14.1
		c7.4-17.7,12.8-33.2,16.1-43l0,0C1222.4,372,1219.2,369,1217.2,365.1z"/>
	<path class="st4" d="M1235.3,374.8c0.6-0.1,1.1-0.2,1.7-0.3h0.1c0.5-0.1,1.1-0.3,1.6-0.5l0.3-0.1c0.6-0.2,1.1-0.4,1.6-0.7h0.1
		c0.5-0.2,1-0.5,1.5-0.8l0.1-0.1c0.5-0.3,1-0.6,1.5-1l0,0c1-0.7,1.9-1.6,2.7-2.5c1-1.1,1.8-2.3,2.5-3.7c4.4,8.8,15.2,12.3,24,7.9
		c3.4-1.7,6.2-4.5,7.9-7.9c4.4,8.8,15.2,12.3,24,7.9c3.4-1.7,6.2-4.5,7.9-7.9c4.4,8.8,15.2,12.3,24,7.9c3.4-1.7,6.2-4.5,7.9-7.9
		c2.4,4.7,6.7,8.1,11.8,9.3c-1.5-27.1-4.8-54.1-10.1-80.8c-14.6,4-30.2,1.9-43.2-5.8c-27.7-15.8-34.7-93.3-36.2-120.7h-83.5
		c-48.3,43.5-47.3,172.9-56.5,201.2c-0.2,0.8-0.5,1.5-0.8,2.3c7.6,6.3,18.8,5.2,25.1-2.3c0.9-1,1.6-2.2,2.2-3.4
		c4.4,8.8,15.2,12.3,24,7.9c3.4-1.7,6.2-4.5,7.9-7.9c4.4,8.8,15.2,12.3,24,7.9c3.4-1.7,6.2-4.5,7.9-7.9c1.9,3.8,5.2,6.8,9.2,8.5
		c1,0.4,2.1,0.8,3.2,1h0.2c0.5,0.1,0.9,0.2,1.4,0.2h0.4c0.5,0,1.1,0.1,1.6,0.1c0.5,0,1.2,0,1.8-0.1L1235.3,374.8z"/>
	<path class="st10" d="M1262.6,683h79.2c0,0,2.8-18.7,12.9-30.9c-7.8-5.7-14.2-12.7-15.8-24.1c-1.3-9.7-0.6-22.7,1.2-38.6h-92.4
		C1249.2,621,1254.2,652.4,1262.6,683z"/>
	<path class="st10" d="M1002.8,626l-2.5-1.2c-0.2-0.1-0.5-0.2-0.8-0.3l74.1,37.9c0,0,11-15.1,25.2-21.2c-1.9-3.9-3.3-8-4.3-12.2
		c-2.7-12,5.2-30.1,18.1-51.7l-83-42.2C1008.5,585.2,1002.8,626,1002.8,626z"/>
	<path class="st4" d="M1262.6,683h-2.4c-3.5-0.1-6.4,2.6-6.5,6c-0.1,3.5,2.6,6.4,6,6.5c0.2,0,0.3,0,0.5,0H1393
		c0-26-22.3-31.9-38.3-43.5c-10,12.2-12.9,30.9-12.9,30.9H1262.6z"/>
	<path class="st4" d="M1073.7,662.3l-74.1-37.9c-3.2-1.1-6.6,0.6-7.7,3.7c-1,2.9,0.3,6.1,3,7.4l118,59.9
		c11.3-23.5-4.9-35.1-14.1-54.5C1084.7,647.3,1073.7,662.3,1073.7,662.3z"/>
	<path class="st12" d="M1321.5,436.8c0,18.5,14.4,33.7,32.8,34.7c1.6-19.7,2.7-41,2.9-63.7c0-1.9,0-3.8,0-5.8c-0.3,0-0.7,0-1,0
		C1337.1,402,1321.5,417.6,1321.5,436.8z"/>
	<path class="st12" d="M1161.2,448.3c0,12.3,6.5,23.7,17.1,29.9c2.4-3.9,4.8-7.7,7.1-11.6c9.4-16.1,17.8-32.8,24.9-50
		c-17.5-7.9-38.1,0-46,17.5C1162.3,438.6,1161.3,443.4,1161.2,448.3L1161.2,448.3z"/>
	<path class="st12" d="M1303.2,288c13,7.7,28.6,9.7,43.2,5.7c-15-76.5-40.3-126.4-40.3-126.4h-39.1
		C1268.5,194.7,1275.5,272.2,1303.2,288z"/>
	<path class="st11" d="M1303.2-81c-1.7,0.9-7.7,1.1-9.7-3.7"/>
	<circle class="st4" cx="1299.3" cy="-105" r="2.9"/>
	<line class="st11" x1="1244.3" y1="-106" x2="1253.9" y2="-99.2"/>
	<line class="st9" x1="1182.5" y1="167.3" x2="1306.1" y2="167.3"/>
	<path class="st15" d="M1217.9,170.2c0,0,22.6,32.3,12,35.8C1220.1,209.3,1218.2,185.1,1217.9,170.2z"/>
	<path class="st15" d="M1217.2,170.2c0,0-11.6,29-20.3,24.1C1191.3,191.2,1205.6,177,1217.2,170.2z"/>
	<path class="st4" d="M884.5,162.5H1040c3.5,0,6.3,2.8,6.3,6.3v0c0,3.5-2.8,6.3-6.3,6.3H884.5c-3.5,0-6.3-2.8-6.3-6.3v0
		C878.2,165.3,881.1,162.5,884.5,162.5z"/>
	<path class="st1" d="M962.3,166.3c-45.4,0-65.7-32.8-65.7-32.8v81.1c0,15.5,12.5,28,28,28h75.2c15.5,0,28-12.5,28-28v-81.1
		C1027.9,133.5,1007.7,166.3,962.3,166.3z"/>
	<path class="st6" d="M962.3,166.3c45.4,0,65.7-32.8,65.7-32.8H896.6C896.6,133.5,916.9,166.3,962.3,166.3z"/>
	<circle class="st4" cx="963.7" cy="121.4" r="12.1"/>
	<circle class="st0" cx="964.7" cy="40.3" r="17.9"/>
	<circle class="st0" cx="965" cy="-21.7" r="26.3"/>
	<path class="st2" d="M1843,459c0,0-9.2,20.7-33.3,20.7s-33.3-20.7-33.3-20.7s-67.8,155.1-1.2,236.6h68.9
		C1910.8,614,1843,459,1843,459z"/>
	<path class="st4" d="M1809.7,479.6c24.1,0,33.3-20.7,33.3-20.7h-66.6C1776.4,459,1785.6,479.6,1809.7,479.6z"/>
	<path class="st16" d="M1872,597c-37.5,0.7-81.8,14.2-116,62"/>
	<path class="st16" d="M1750,559c25.2-6.1,72.8-12,119-1"/>
	<path class="st16" d="M1868.8,636.8c-16.8,0.2-47.8,19.2-44.3,57.5"/>
	<line class="st5" x1="1830.5" y1="307.4" x2="1812" y2="468.6"/>
	<line class="st5" x1="1839.4" y1="372.2" x2="1816.2" y2="467.3"/>
	
		<ellipse transform="matrix(-0.9195 -0.3931 0.3931 -0.9195 3209.1565 1457.4452)" class="st4" cx="1753.8" cy="400.1" rx="40.4" ry="9.7"/>
	
		<ellipse transform="matrix(-0.3528 -0.9357 0.9357 -0.3528 2133.439 2307.1877)" class="st4" cx="1864.6" cy="415.8" rx="9.3" ry="41.9"/>
	
		<ellipse transform="matrix(-0.8096 -0.5869 0.5869 -0.8096 3040.4207 1739.6108)" class="st4" cx="1802.3" cy="376.7" rx="23.5" ry="7.2"/>
	<line class="st5" x1="1762.9" y1="333.7" x2="1808.2" y2="468.6"/>
	<path class="st10" d="M1821.2,342.7c6.2-13.4,22-19.2,35.4-13.1c13.4,6.2,19.2,22,13.1,35.4c-2.6,5.6-7.1,10.2-12.6,12.9
		C1852.4,360.6,1838.7,347.1,1821.2,342.7z"/>
	<path class="st17" d="M1835.2,357.8c3.6-11.5,11.3-21.4,21.6-27.7"/>
	<path class="st17" d="M1839.7,361.4c7.4-9.6,18.1-16.2,30-18.5"/>
	<path class="st10" d="M1857.1,377.9c-13.3,6.4-29.2,0.8-35.6-12.4c-3.5-7.2-3.5-15.5-0.2-22.7
		C1838.7,347.1,1852.4,360.6,1857.1,377.9z"/>
	<path class="st10" d="M1780.3,304.1c-7.6-12.6-24-16.7-36.6-9.1c-12.6,7.6-16.7,24-9.1,36.6c3.2,5.3,8.2,9.4,14,11.4
		C1751.4,325.3,1763.5,310.4,1780.3,304.1z"/>
	<path class="st17" d="M1768.1,320.7c-4.8-11.1-13.6-20-24.5-25.1"/>
	<path class="st17" d="M1764.1,324.7c-8.4-8.7-19.8-14.1-31.9-15"/>
	<path class="st10" d="M1748.6,343c13.9,4.9,29.1-2.4,34-16.3c2.6-7.5,1.8-15.8-2.3-22.6C1763.5,310.4,1751.4,325.3,1748.6,343z"/>
	<path class="st10" d="M1856,292.3c0.3-14.7-11.3-26.9-26.1-27.3c-14.7-0.3-26.9,11.3-27.3,26.1c-0.1,6.2,1.9,12.2,5.7,17.1
		C1820.2,294.7,1838.4,288.6,1856,292.3z"/>
	<path class="st17" d="M1836.9,299.7c1.8-12-0.7-24.2-7.3-34.4"/>
	<path class="st17" d="M1831.3,300.9c-2.4-11.9-9.2-22.5-18.9-29.8"/>
	<path class="st10" d="M1808.4,308.2c9.1,11.6,25.9,13.5,37.5,4.4c6.2-4.9,9.9-12.4,10.1-20.3
		C1838.4,288.6,1820.2,294.7,1808.4,308.2z"/>
	<path class="st17" d="M1781.3,305.1c-16.8,6.3-28.9,21.2-31.7,38.9"/>
	<path class="st17" d="M1856.5,292.3c-17.5-4.2-35.8,1.4-48,14.6"/>
	<path class="st17" d="M1859.7,375.8c-5.5-17.1-19.8-29.9-37.4-33.5"/>
</g>
</svg>
