<?xml version="1.0" encoding="utf-8"?>
<!-- Generator: Adobe Illustrator 19.0.0, SVG Export Plug-In . SVG Version: 6.00 Build 0)  -->
<svg version="1.1" id="Layer_1" xmlns="http://www.w3.org/2000/svg" xmlns:xlink="http://www.w3.org/1999/xlink" x="0px" y="0px"
	 viewBox="774.5 -178 1110.9 881" style="enable-background:new 774.5 -178 1110.9 881;" xml:space="preserve">
<style type="text/css">
	.st0{fill:#3EC1F3;}
	.st1{fill:#F4E6D8;}
	.st2{fill:#4756DF;}
	.st3{fill:none;stroke:#4756DF;stroke-width:4;stroke-linecap:round;stroke-miterlimit:10;}
	.st4{fill:none;stroke:#4756DF;stroke-width:4;stroke-miterlimit:10;}
	.st5{fill:#F5EBDD;}
	.st6{fill:#FFB7D5;}
	.st7{fill:none;stroke:#FFB7D5;stroke-width:4;stroke-linecap:round;stroke-linejoin:round;stroke-dasharray:12;}
	.st8{fill:none;stroke:#FFB7D5;stroke-width:4;stroke-linecap:round;stroke-linejoin:round;}
	.st9{fill:#FFFFFF;}
	.st10{fill:#4856DF;}
	.st11{fill:#30242A;}
	.st12{fill:none;stroke:#FFFFFF;stroke-width:4;stroke-linecap:round;stroke-linejoin:round;}
	.st13{fill:none;stroke:#3EC1F3;stroke-width:4;stroke-linecap:round;stroke-miterlimit:10;}
	.st14{fill:none;stroke:#30242A;stroke-width:4;stroke-linecap:round;stroke-linejoin:round;}
	.st15{fill:none;}
	.st16{fill:#EAA58B;}
	.st17{fill:#FF7235;}
	.st18{fill:#CA7358;}
	.st19{fill:none;stroke:#A15842;stroke-width:4;stroke-linecap:round;stroke-miterlimit:10;}
	.st20{fill:none;stroke:#A15842;stroke-width:4;stroke-linecap:round;stroke-linejoin:round;}
	.st21{fill:none;stroke:#000000;stroke-width:4;stroke-linecap:round;stroke-miterlimit:10;}
	.st22{fill:none;stroke:#FF7235;stroke-width:4;stroke-miterlimit:10;}
	.st23{fill:none;stroke:#FF7235;stroke-width:4;stroke-linecap:round;stroke-miterlimit:10;}
</style>
<title>wfh_2</title>
<g id="Layer_12">
	<rect x="1198.9" y="-58.8" class="st0" width="154.9" height="229.2"/>
	<path class="st0" d="M1153.5-58.8h45.4l0,0v229.2l0,0h-101.8l0,0V-2.5C1097.2-33.6,1122.4-58.8,1153.5-58.8z"/>
	<ellipse class="st1" cx="1145.3" cy="100.9" rx="22.5" ry="24.6"/>
	<path class="st2" d="M1176.9,101.4h-63.3c0,12.9,7.8,24.4,19.7,29.3v8h23.9v-8C1169.2,125.8,1176.9,114.3,1176.9,101.4z"/>
	<line class="st3" x1="1096" y1="40" x2="1197" y2="-1"/>
	<line class="st4" x1="1197.1" y1="-58.8" x2="1197.1" y2="170.4"/>
	<path class="st5" d="M1766.4,542.6v-88l-53.2-54.1h-149.4l-53.2,54.1v81.6h-186.1v-33.9l0,0c-59.6-6.4-41.3-50.4-74.3-50.4h-58.7
		l0,0c-4.3,0-8.5,1.2-12.1,3.5l-82.8-51.2h-85.2l-106.8,66h0.2v83.1l-71.7,44.3v76.1h986.4v-77L1766.4,542.6z"/>
	<path class="st6" d="M1855.3,673.7h-57.8c0-15.9,12.9-32.1,28.9-32.1S1855.3,657.7,1855.3,673.7z"/>
	<path class="st6" d="M1885.4,673.7h-42.9c0-11.8,9.6-23.8,21.4-23.8S1885.4,661.8,1885.4,673.7z"/>
	<path class="st7" d="M1042.5,288.7c28-8.7,64-21.1,173.6,68.5s151,31,139.8,17.5c-9-10.9-59.3,18.5-21.8,58.2
		c35.6,37.7,139.7,1.6,168.3-21.4c40.7-32.8,98.9-58.7,150.2-60.5"/>
	<line class="st8" x1="1118.3" y1="470.1" x2="1011.4" y2="404.1"/>
	<polyline class="st8" points="905.9,470.1 1118.5,470.1 1118.5,672.7 	"/>
	<line class="st8" x1="902.1" y1="673" x2="903.1" y2="554.2"/>
	<line class="st8" x1="834.1" y1="597.6" x2="901.9" y2="597.6"/>
	<line class="st8" x1="903.3" y1="583.4" x2="1116.9" y2="583.4"/>
	<line class="st8" x1="1508.3" y1="613.6" x2="1659.6" y2="613.6"/>
	<line class="st8" x1="1118.3" y1="470.1" x2="1168.1" y2="470.1"/>
	<polyline class="st8" points="1511.6,454.6 1660.1,454.6 1660.1,672.7 	"/>
	<polyline class="st8" points="1660.1,671.7 1660.1,454.6 1764.4,454.6 	"/>
	<line class="st8" x1="1266.8" y1="504.1" x2="1323.5" y2="504.1"/>
	<polyline class="st8" points="1713.2,672.7 1713.2,596.7 1818,596.7 	"/>
	<line class="st8" x1="1712.7" y1="401.1" x2="1660.1" y2="454.6"/>
	<line class="st8" x1="1660.1" y1="542.6" x2="1713.2" y2="596.7"/>
	<line class="st8" x1="1764.9" y1="540.3" x2="1660.5" y2="540.3"/>
	<path class="st8" d="M1192.7,453.6c-33,0-14.7,44-74.3,50.4H1267C1207.4,497.7,1225.7,453.6,1192.7,453.6z"/>
	<polyline class="st8" points="1118.5,671.7 1118.5,504.1 1267,504.1 1267,672.7 	"/>
	<polyline class="st8" points="1266.8,671.7 1266.8,552.7 1508.3,552.7 1508.3,672.7 	"/>
	<line class="st8" x1="1267.2" y1="550.4" x2="1323" y2="534.3"/>
	<polyline class="st8" points="1508.3,537.2 1508.3,552.7 1266.8,552.7 	"/>
	<path class="st6" d="M1314.8,580.2h0.2c9,0,16.4,7.3,16.4,16.4v77.2l0,0h-33l0,0v-77.1C1298.4,587.5,1305.7,580.2,1314.8,580.2
		C1314.7,580.2,1314.7,580.2,1314.8,580.2z"/>
	<path class="st6" d="M1462.4,580.2h0.3c9,0,16.4,7.3,16.4,16.4l0,0v77.2l0,0h-33l0,0v-77.2C1446,587.5,1453.3,580.2,1462.4,580.2
		L1462.4,580.2z"/>
	<path class="st6" d="M1388.6,580.2h0.3c9,0,16.4,7.3,16.4,16.4v77.2l0,0h-33l0,0v-77.1C1372.2,587.5,1379.5,580.2,1388.6,580.2
		L1388.6,580.2z"/>
	<path class="st6" d="M1768.1,617.7h0.3c9,0,16.4,7.3,16.4,16.4v39.6l0,0h-33l0,0v-39.6C1751.7,625.1,1759.1,617.7,1768.1,617.7z"/>
	<path class="st6" d="M948.8,617.7h0.2c9,0,16.4,7.3,16.4,16.4v39.6l0,0h-33l0,0v-39.6C932.4,625.1,939.7,617.7,948.8,617.7
		L948.8,617.7z"/>
	<path class="st6" d="M1074.3,617.7h0.3c9,0,16.4,7.3,16.4,16.3c0,0,0,0,0,0v39.6l0,0h-33l0,0v-39.6
		C1058,625.1,1065.3,617.8,1074.3,617.7z"/>
	<path class="st6" d="M1011.5,617.7h0.3c9,0,16.4,7.3,16.4,16.4v39.6l0,0h-33l0,0v-39.6C995.2,625.1,1002.5,617.7,1011.5,617.7z"/>
	<rect x="932.4" y="499.5" class="st6" width="33" height="55.9"/>
	<rect x="1058" y="499.5" class="st6" width="33" height="55.9"/>
	<rect x="995.2" y="499.5" class="st6" width="33" height="55.9"/>
	<rect x="1152.9" y="532.5" class="st6" width="27.4" height="41.2"/>
	<rect x="1205.1" y="532.5" class="st6" width="27.4" height="41.2"/>
	<rect x="1152.9" y="604.9" class="st6" width="27.4" height="41.2"/>
	<rect x="1205.1" y="604.9" class="st6" width="27.4" height="41.2"/>
	<rect x="1544.4" y="477.5" class="st6" width="27.4" height="41.2"/>
	<rect x="1596.6" y="477.5" class="st6" width="27.4" height="41.2"/>
	<rect x="1702" y="477.5" class="st6" width="27.4" height="41.2"/>
	<rect x="1544.4" y="549.9" class="st6" width="27.4" height="41.2"/>
	<rect x="1596.6" y="549.9" class="st6" width="27.4" height="41.2"/>
	<path class="st6" d="M1047.7,236.8c0,20.6-22,44.5-30.7,44.5s-30.7-23.8-30.7-44.5c0.3-17,14.3-30.5,31.3-30.2
		C1034,207,1047.4,220.3,1047.7,236.8z"/>
	<circle class="st9" cx="1016.9" cy="236.8" r="9.6"/>
	<path class="st6" d="M1718.7,304.6c0,20.6-22,44.5-30.7,44.5s-30.7-23.8-30.7-44.5c0-17,13.7-30.7,30.7-30.7
		C1705,273.9,1718.7,287.6,1718.7,304.6L1718.7,304.6z"/>
	<circle class="st9" cx="1688" cy="304.6" r="9.6"/>
	<path class="st6" d="M804.5,673.7h57.8c0-15.9-12.9-32.1-28.9-32.1C817.5,641.6,804.5,657.7,804.5,673.7z"/>
	<path class="st6" d="M774.5,673.7h42.9c0-11.8-9.6-23.8-21.5-23.8S774.5,661.8,774.5,673.7z"/>
	<path class="st10" d="M1297.8,106c-71.2,43.5-95.9,164.7-111,208.9c-16.3,47.8-52.2,46.7-93.9,60.7c-41.7,13.9-40.1,44.3-40.1,44.3
		c-9.7,6.6-19.1,13.9-27.9,21.7l52.8,67.4c12.4-8.6,30.9-19.4,56.3-34.7c52.4-31.6,99.2-61.3,129.5-94.3s109.8-177.7,109.8-177.7
		L1297.8,106z"/>
	<path class="st11" d="M1077.7,509l-52.8-67.4c-23.6,21-37.7,41-44.8,52.6l74.4,95.1c10.5-19,2.2-45.7,3-57.4
		C1058,524.8,1064.4,518.2,1077.7,509z"/>
	<path class="st0" d="M974.2,504.7l73.2,93.5c2.8-2.5,5.2-5.5,7-8.9L980,494.2C977.9,497.6,976,501.1,974.2,504.7z"/>
	<line class="st12" x1="1050.6" y1="513" x2="1064.8" y2="520.9"/>
	<line class="st12" x1="1044.3" y1="527.3" x2="1058.5" y2="530.5"/>
	<line class="st13" x1="1069.6" y1="446.7" x2="1044.3" y2="466.5"/>
	<line class="st13" x1="1056.8" y1="430.3" x2="1031.5" y2="450.1"/>
	<line class="st13" x1="1082.4" y1="463.1" x2="1057.1" y2="482.8"/>
	<line class="st13" x1="1095.2" y1="479.5" x2="1069.9" y2="499.2"/>
	<line class="st13" x1="1050.5" y1="420.7" x2="1105.9" y2="491.7"/>
	<path class="st14" d="M1319.8,294.5c-12-19-23.8-40-32.8-61.7"/>
	<path class="st15" d="M1554.7-23l0.1-0.3l-0.2,0.2L1554.7-23z"/>
	<circle class="st2" cx="1339.7" cy="-169.3" r="8.7"/>
	<path class="st16" d="M1367.3-42.3l-0.6-10.1c11.7,1.5,20.3-0.3,26.5-3.4l-26.5-21.3c0,0,9.2-3.7,3.7-22.9l29.4-10.7
		c-1.5-4-2.6-13.6-5.5-24l-17.5,7.6c-4.1,7.9-10,14.6-17.1,19.8c-3-3.1-6.3-5.8-9.9-8.1c-0.5-0.3-1-0.6-1.5-0.9h-0.1
		c-0.5-0.3-1-0.6-1.5-0.8h-0.1c-0.5-0.2-1-0.5-1.5-0.7l-0.1-0.2c-0.5-0.2-1-0.4-1.5-0.6h-0.1c-0.5-0.2-1-0.4-1.5-0.5h-0.2
		c-0.5-0.1-1-0.3-1.5-0.4h-0.2c-0.5-0.1-1-0.2-1.5-0.2h-0.2c-0.5-0.1-1-0.1-1.5-0.1c-4.4-0.1-8.7,1.7-12.3,6.8
		c-2.2,2.9-3.3,6.5-3.3,10.1c0.1,10.8,10.1,21,19,24c-7.1,14.9-29.9,24.2-38.6,27.3c0.3,3.4,0.6,6.6,0.8,9.4H1367.3z"/>
	<path class="st16" d="M1545.2,19.1c-4.1,0-6.1-3.4-4.5-7.5l14-34.6l-0.1-0.1l0.2-0.2c3.9-3.6,7.5-7.5,10.8-11.7
		c6.3-8,8.2-13.9,6-16.3c-0.6-0.6-1.5-1-2.4-1.1c-0.9-0.1-1.8-0.1-2.7,0.2c-7.1,1.6-19.4,11.3-33,27.3
		c-16.5,19.4-48.6,57.8-48.6,57.8c-3.3-2.5-8.2-6.9-14-12.1l-46.1,59.3c9.9,7.7,20.4,14.5,31.5,20.3c5.8-17.8,24.9-27.6,42.7-21.9
		c9,2.9,16.3,9.4,20.3,17.9c27.8-20.8,49.8-57.8,60.1-77.4H1545.2z"/>
	<path class="st6" d="M1392.4-29.5h-14.1c26.9,16.2,15,46.8,15,46.8s36.7,25.7,11.9,56.8c1.8-1.9,3.4-4.1,4.6-6.4
		c0,0,5.9,5.4,15,12.4l46.1-59.3C1449.5,1.6,1414.7-29.5,1392.4-29.5z"/>
	<path class="st17" d="M1251.2,20c0,0-27,22.5-8.8,52.6l9.6-54L1251.2,20z"/>
	<path class="st17" d="M1302.2-42.3v0.3l1.2-0.3H1302.2z"/>
	<path class="st11" d="M1340-79c-8.9-3-18.9-13.2-19-24l-22.9,10c0.9,12.6,2.2,28.5,3.2,41.3C1310.2-54.8,1333-64.1,1340-79z"/>
	<path class="st11" d="M1366.7-77.2l26.5,21.3c5.2-2.5,9.4-6.9,11.7-12.2c3.9-9.8,1.4-18.2-1.7-29.1c0,0,7.8-5.2,6.5-10
		c-1-3.9-9.8-3.4-9.8-3.4l-0.1-0.2l-29.4,10.7C1375.9-80.8,1366.7-77.2,1366.7-77.2z"/>
	<path class="st11" d="M1359.6-107.3c7.2-5.2,13-12,17.1-19.8l-27,11.8C1353.3-113.1,1356.6-110.4,1359.6-107.3z"/>
	<path class="st2" d="M1348.2-116.3L1348.2-116.3L1348.2-116.3z"/>
	<path class="st2" d="M1346.7-117.1L1346.7-117.1L1346.7-117.1z"/>
	<path class="st2" d="M1345.1-117.9L1345.1-117.9L1345.1-117.9z"/>
	<path class="st2" d="M1343.5-118.6h-0.1H1343.5z"/>
	<path class="st2" d="M1338.4-119.9h-0.2H1338.4z"/>
	<path class="st2" d="M1324.4-113.2c3.6-5.1,7.9-6.8,12.3-6.8h-0.1c-2.5-27.8,3.7-42.8,8.3-50c-4.4,0.6-8.7,1.6-13,2.9
		c-31.8,9.6-35.5,41-34.6,59.7c0.2,3.7,0.5,8.7,0.9,14.3l22.9-10C1321.1-106.7,1322.2-110.2,1324.4-113.2z"/>
	<path class="st2" d="M1341.8-119.1h-0.2H1341.8z"/>
	<path class="st2" d="M1340.1-119.6h-0.2H1340.1z"/>
	<path class="st0" d="M1348.2-116.3c-0.5-0.3-1-0.6-1.5-0.8C1347.2-116.9,1347.7-116.6,1348.2-116.3z"/>
	<path class="st0" d="M1349.7-115.4c-0.5-0.3-1-0.6-1.5-0.9C1348.7-116,1349.2-115.7,1349.7-115.4z"/>
	<path class="st0" d="M1341.6-119.2c-0.5-0.1-1-0.3-1.5-0.4C1340.6-119.5,1341.1-119.3,1341.6-119.2z"/>
	<path class="st0" d="M1346.6-117.2c-0.5-0.2-1-0.5-1.5-0.7C1345.6-117.7,1346.1-117.4,1346.6-117.2z"/>
	<path class="st0" d="M1338.2-119.9c-0.5-0.1-1-0.1-1.5-0.1C1337.2-120,1337.7-119.9,1338.2-119.9z"/>
	<path class="st0" d="M1339.9-119.6c-0.5-0.1-1-0.2-1.5-0.2C1338.9-119.8,1339.4-119.7,1339.9-119.6z"/>
	<path class="st0" d="M1343.3-118.6c-0.5-0.2-1-0.4-1.5-0.5C1342.3-119,1342.8-118.8,1343.3-118.6z"/>
	<path class="st0" d="M1345-118c-0.5-0.2-1-0.4-1.5-0.6C1344-118.4,1344.5-118.2,1345-118z"/>
	<path class="st0" d="M1336.6-120L1336.6-120c0.6,0,1.1,0,1.6,0.1h0.2c0.5,0.1,1,0.1,1.5,0.2h0.2c0.5,0.1,1,0.2,1.5,0.4h0.2
		c0.5,0.2,1,0.3,1.5,0.5h0.1c0.5,0.2,1,0.4,1.5,0.6l0.1,0.1c0.5,0.2,1,0.5,1.5,0.7h0.1c0.5,0.3,1,0.5,1.5,0.8h0
		c0.5,0.3,1,0.6,1.5,0.9l27-11.8l17.5-7.6c-5.3-18.7-17-39.7-49.4-35.1C1340.3-162.8,1334.1-147.7,1336.6-120z"/>
	<path class="st18" d="M1488.6,76.9c-14.7,0-27.8,9.5-32.3,23.5c14.7,7.5,30.3,12.1,42.4,7.6c7.4-2.9,14.4-6.8,20.7-11.6
		C1513.8,84.5,1501.8,76.9,1488.6,76.9z"/>
	<path class="st17" d="M1397,133.2c33-21.5,10-58.2,8.2-59.1c24.8-31.2-11.9-56.8-11.9-56.8s11.9-30.6-15-46.8h-10.2l-0.8-12.8
		h-63.9l-1.2,0.3l1.1,12.5h-20.6L1252,18.7l-9.6,54l0.5,0.8c-0.3,0.6-0.7,1.2-1,1.8c-6.2,12.2-7.1,22.6-5.5,31
		c3.3,17.6,17.5,26.9,17.5,26.9L1397,133.2L1397,133.2z"/>
	<polygon class="st11" points="1253.9,149.3 1396.9,149.3 1396.9,136.5 1396.9,133.2 1253.9,133.2 1253.9,136.5 	"/>
	<line class="st19" x1="1239" y1="17.3" x2="1393.3" y2="17.3"/>
	<line class="st19" x1="1242.7" y1="74.1" x2="1406" y2="74.1"/>
	<line class="st19" x1="1370.4" y1="-23.1" x2="1370" y2="-28.5"/>
	<line class="st19" x1="1352.9" y1="-25.8" x2="1352" y2="-40.5"/>
	<line class="st19" x1="1339.2" y1="-25.8" x2="1338.3" y2="-40.5"/>
	<line class="st19" x1="1325.4" y1="-25.8" x2="1324.5" y2="-40.5"/>
	<line class="st20" x1="1483.1" y1="32.1" x2="1472.1" y2="45.7"/>
	<path class="st19" d="M1353.9-53.3c4.1,1.4,8.3,2.4,12.5,2.9"/>
	<path class="st5" d="M1565.7-35c0.1,2.7,2,4.6,5.1,4.6h29.9c4.1,0,8.9-3.4,10.5-7.5l9.1-22.6c1.7-4.1-0.3-7.5-4.5-7.5h-29.9
		c-4.1,0-8.9,3.4-10.5,7.5l-3.7,9.2C1573.9-48.9,1572-43,1565.7-35z"/>
	<path class="st2" d="M1627.3-82.7h-8.1l-0.7,1.8c-1.1,2.7-3.7,4.5-6.6,4.7h-15.4c-2.6,0-3.8-2.1-2.8-4.7l0.7-1.8h-8.1
		c-4.2,0-8.9,3.4-10.5,7.5l-9.3,22.9c0.9-0.2,1.8-0.3,2.7-0.2c0.9,0.1,1.7,0.5,2.4,1.1l3.7-9.2c1.7-4.1,6.4-7.5,10.5-7.5h29.9
		c4.1,0,6.1,3.4,4.5,7.5l-9.1,22.6c-1.7,4.1-6.4,7.5-10.5,7.5h-29.9c-3.1,0-5-1.9-5.1-4.6c-3.3,4.2-6.9,8.1-10.8,11.7l-0.1,0.3
		l-14,34.6c-1.7,4.1,0.3,7.5,4.5,7.5h40.9c4.1,0,8.9-3.4,10.5-7.5l35-86.8C1633.4-79.3,1631.4-82.7,1627.3-82.7z M1587.3,5.3
		c-0.5,1.3-1.4,2.4-2.6,3.2c-1.1,0.9-2.5,1.4-3.9,1.4H1558c-2.5,0-3.8-2-2.7-4.6c1.1-2.6,3.6-4.4,6.4-4.6h22.9
		C1587.1,0.8,1588.3,2.8,1587.3,5.3L1587.3,5.3z"/>
	<path class="st0" d="M1584.6,0.8h-22.9c-2.8,0.2-5.3,2-6.4,4.6c-1,2.5,0.2,4.6,2.7,4.6h22.9c1.4-0.1,2.8-0.6,3.9-1.4
		c1.1-0.8,2-1.9,2.6-3.2C1588.3,2.8,1587.1,0.8,1584.6,0.8z"/>
	<path class="st0" d="M1596.5-76.2h15.4c2.9-0.2,5.4-2,6.6-4.7l0.7-1.8h-24.8l-0.7,1.8C1592.7-78.3,1593.9-76.2,1596.5-76.2z"/>
	<line class="st14" x1="1417.1" y1="-143.2" x2="1355.7" y2="-115.7"/>
	<path class="st21" d="M1397.4-85.8c-1.8,0.5-7.9-0.5-8.8-5.7"/>
	<circle class="st11" cx="1387.9" cy="-114.9" r="3"/>
	<line class="st19" x1="1337.1" y1="-101.5" x2="1347.9" y2="-94.6"/>
	<line class="st14" x1="1360.3" y1="-109.2" x2="1372.2" y2="-100.1"/>
	<line class="st14" x1="1337.4" y1="-78.1" x2="1369.4" y2="-77.2"/>
	<path class="st22" d="M1462,136.5c7.6,0,13.8,6.2,13.8,13.8l0,0c0,7.6-6.1,13.8-13.7,13.8c0,0,0,0,0,0"/>
	<path class="st22" d="M1481.3,136.5c7.6,0,13.7,6.2,13.7,13.8l0,0c0,7.6-6.1,13.8-13.7,13.8"/>
	<path class="st11" d="M1428.9,138.3h151.5c6.5,0,11.8,5.3,11.8,11.8v0.2c0,6.5-5.3,11.8-11.8,11.8h-151.5
		c-6.5,0-11.8-5.3-11.8-11.8v-0.2C1417.1,143.6,1422.4,138.3,1428.9,138.3z"/>
	
		<rect x="1290.6" y="382.8" transform="matrix(-0.1769 -0.9842 0.9842 -0.1769 1433.8711 1988.6227)" class="st11" width="515.7" height="23.8"/>
	<path class="st22" d="M1428.9,138.3h0.2c6.5,0,11.8,5.3,11.8,11.8v0.2c0,6.5-5.3,11.8-11.8,11.8h-0.2c-6.5,0-11.8-5.3-11.8-11.8
		v-0.2C1417.1,143.6,1422.4,138.3,1428.9,138.3z"/>
	<path class="st23" d="M1543.6,137.2c5.5,1.9,9.2,7.1,9.2,13l0,0c0,5.5-3.2,10.4-8.2,12.6"/>
	<path class="st23" d="M1559.6,137.2c5.5,1.9,9.2,7.1,9.2,13l0,0c0,5.5-3.2,10.4-8.2,12.6"/>
	<rect x="1259.4" y="649.8" class="st11" width="334.6" height="23.8"/>
	<circle class="st11" cx="1280.1" cy="673.7" r="29.3"/>
	<circle class="st6" cx="1280.1" cy="673.7" r="11"/>
	<circle class="st11" cx="1599.2" cy="673.7" r="29.3"/>
	<circle class="st6" cx="1599.2" cy="673.7" r="11"/>
	<path class="st17" d="M1325.9,673.7h-91.7c0.4-25.3,21.2-45.5,46.5-45.2C1305.5,628.9,1325.5,648.9,1325.9,673.7L1325.9,673.7z"/>
	<path class="st17" d="M1645.1,673.7h-91.7c0.4-25.3,21.2-45.5,46.5-45.2C1624.7,628.9,1644.7,648.9,1645.1,673.7z"/>
	<path class="st10" d="M1370.6,570.1h85.7c1-15,3.8-35.9,7.3-64.7c7.4-60.7,12.9-115.9,5.5-160.1s-72.3-196-72.3-196h-122.3
		c-9.6,82.8,70.6,177.1,96.1,216.2c27.6,42.3,4.6,69.9-10.1,111.3s10.1,58.9,10.1,58.9C1370,547.1,1370,558.6,1370.6,570.1z"/>
	<path class="st11" d="M1384.5,638.8h120.7c-8.5-20-34.7-29.9-43.3-37.8c-5.3-4.8-6.6-14.3-5.5-31h-85.7
		C1372.5,602.1,1379.6,625.9,1384.5,638.8z"/>
	<path class="st0" d="M1389.2,649.8h118.7c-0.3-3.8-1.2-7.5-2.7-11h-120.7C1385.9,642.6,1387.4,646.3,1389.2,649.8z"/>
	<line class="st13" x1="1404" y1="538.9" x2="1404" y2="569"/>
	<line class="st13" x1="1383.2" y1="538.9" x2="1383.2" y2="569"/>
	<line class="st13" x1="1424.8" y1="538.9" x2="1424.8" y2="569"/>
	<line class="st13" x1="1445.5" y1="538.9" x2="1445.5" y2="569"/>
	<line class="st13" x1="1371" y1="538" x2="1459" y2="538"/>
	<path class="st0" d="M1426.2,220.4c-3-7.4-5.9-14.6-8.6-21.3l-45-7.9v0.2c-1.9,10.5,5.2,20.6,15.7,22.4L1426.2,220.4z"/>
	<line class="st12" x1="1442.8" y1="594.8" x2="1457" y2="589"/>
	<line class="st12" x1="1450.1" y1="608.6" x2="1462" y2="599"/>
	<path class="st16" d="M1597.7,9c0,0,15.7,0.6,17-13.1c0,0,11.2-5.2,8.3-15.4c0,0,10.3-2.9,7.3-13.2c-0.2-0.6,5.8-1.8,5.5-10.3
		c-0.4-12.4-8.8-21.3-12.5-22.2c-11-2.8-6.8,15.1-7.3,14.7c-6.4-5.5-15.8-8-19.1-5.2c-5.8,4.9-1.8,11.4-1.8,11.4s-7.5-1.8-11.1,3.6
		c-4.4,6.5,3.5,12.6,3.5,12.6s-8.3,0.9-6.9,8.6c1.5,8.6,14.5,10.5,20.6,19.5L1597.7,9z"/>
	<path class="st20" d="M1587.2-29.7c8.8,3.3,24,10.6,28.3,22.6"/>
	<path class="st20" d="M1597.1-45c7.5,4.1,20.8,12.5,26.7,23.5"/>
	<path class="st20" d="M1617.5-52c4.9,4.4,10.3,10.2,13.6,17"/>
	<path class="st5" d="M1303.4-29.5c0,0,32.9,49.5,23.8,97.2c-6.4,33.9-83.4,63.3-128.4,73.3v-26.6c0,0,93.5-22.9,104.5-64.2
		c6.7-25-20.2-79.8-20.2-79.8"/>
	<path class="st16" d="M1520.7,131c-5.5-13.8-22.9-28.4-43.1-35.8c-38.8-14.1-132.9,6.4-132.9,6.4l-14.1-30.1l-69.4,34
		c10,19.5,22,35.9,34.3,47.2c11.8-14.6,33.1-16.8,47.7-5.1c6.8,5.5,11.2,13.4,12.3,22.1c38.4-3,80.8-20.5,92.9-31.4
		c0,0,7.3,6.4,15.6,7.3c0,2.8-12.8,39.4,10.1,31.2c0,0,6.4,8.2,15.6-0.9c0,0,6.4,9.2,15.6,0.9c0,0,5,3.1,11.9-4.6
		C1525.3,163,1527.7,148.5,1520.7,131z"/>
	<path class="st6" d="M1283.3-29.5h-2.3c-18.6,0-49.1,13.8-45.4,49.4c3.2,29.8,11.9,58.8,25.6,85.5l69.4-34L1283.3-29.5z"/>
	<path class="st18" d="M1321.8,140.1c-10.2,0-19.9,4.6-26.4,12.6c2.5,2.4,5.2,4.6,8,6.7c12.9,9.4,31.9,11.9,52,10.3
		C1353.2,152.8,1338.8,140.1,1321.8,140.1z"/>
	<path class="st20" d="M1474.8,175.4c4-8,13.1-28.7,6.5-42.6"/>
	<line class="st20" x1="1320.9" y1="104.4" x2="1342.5" y2="99.9"/>
	<path class="st20" d="M1491,175c4.2-8.4,13.2-28.8,6.8-42.2"/>
	<path class="st20" d="M1507,176c4-8.1,12.9-29.5,6.4-43.2"/>
</g>
</svg>
